<svg xmlns="http://www.w3.org/2000/svg" width="18.508" height="18.508" viewBox="0 0 18.508 18.508">
  <path id="Icon_awesome-phone-alt" data-name="Icon awesome-phone-alt" d="M17.98,13.079l-4.049-1.735a.868.868,0,0,0-1.012.249l-1.793,2.191A13.4,13.4,0,0,1,4.721,7.379L6.912,5.586a.865.865,0,0,0,.249-1.012L5.426.525a.873.873,0,0,0-.994-.5L.672.89A.868.868,0,0,0,0,1.735,16.772,16.772,0,0,0,16.773,18.509a.868.868,0,0,0,.846-.672l.868-3.76a.878.878,0,0,0-.506-1Z" transform="translate(0 0)" fill="#e0e4ff"/>
</svg>
