<svg xmlns="http://www.w3.org/2000/svg" xmlns:xlink="http://www.w3.org/1999/xlink" width="34.23" height="26.999" viewBox="0 0 34.23 26.999">
  <defs>
    <clipPath id="clip-path">
      <path id="Path_982" data-name="Path 982" d="M0-16.014H34.23v-27H0Z" transform="translate(0 43.013)" fill="none"/>
    </clipPath>
  </defs>
  <g id="Group_1351" data-name="Group 1351" transform="translate(0 43.013)">
    <g id="Group_1350" data-name="Group 1350" transform="translate(0 -43.013)" clip-path="url(#clip-path)">
      <g id="Group_1344" data-name="Group 1344" transform="translate(4.187 0.157)">
        <path id="Path_976" data-name="Path 976" d="M-4.149,0a2.671,2.671,0,0,1,2.67,2.67V5.34h-9.665V2.67A2.67,2.67,0,0,1-8.474,0Z" transform="translate(11.144)" fill="#c4b897"/>
      </g>
      <g id="Group_1345" data-name="Group 1345" transform="translate(4.187 0.157)">
        <path id="Path_977" data-name="Path 977" d="M-4.149,0a2.671,2.671,0,0,1,2.67,2.67V5.34h-9.665V2.67A2.67,2.67,0,0,1-8.474,0Z" transform="translate(11.144)" fill="none" stroke="#978448" stroke-width="0.5"/>
      </g>
      <g id="Group_1346" data-name="Group 1346" transform="translate(20.378 0.157)">
        <path id="Path_978" data-name="Path 978" d="M-4.149,0a2.671,2.671,0,0,1,2.67,2.67V5.34h-9.665V2.67A2.67,2.67,0,0,1-8.474,0Z" transform="translate(11.144)" fill="#c4b897"/>
      </g>
      <g id="Group_1347" data-name="Group 1347" transform="translate(20.378 0.157)">
        <path id="Path_979" data-name="Path 979" d="M-4.149,0a2.671,2.671,0,0,1,2.67,2.67V5.34h-9.665V2.67A2.67,2.67,0,0,1-8.474,0Z" transform="translate(11.144)" fill="none" stroke="#978448" stroke-width="0.5"/>
      </g>
      <g id="Group_1348" data-name="Group 1348" transform="translate(0.157 5.001)">
        <path id="Path_980" data-name="Path 980" d="M-19.23,0a1.5,1.5,0,0,1,1.495,1.495V21.842H-51.652V1.495A1.5,1.5,0,0,1-50.157,0Z" transform="translate(51.652)" fill="#c4b897"/>
      </g>
      <g id="Group_1349" data-name="Group 1349" transform="translate(0.157 5.001)">
        <path id="Path_981" data-name="Path 981" d="M-19.23,0a1.5,1.5,0,0,1,1.495,1.495V21.842H-51.652V1.495A1.5,1.5,0,0,1-50.157,0Z" transform="translate(51.652)" fill="none" stroke="#978448" stroke-width="0.5"/>
      </g>
    </g>
  </g>
</svg>
