<svg xmlns="http://www.w3.org/2000/svg" xmlns:xlink="http://www.w3.org/1999/xlink" width="181.595" height="33.14" viewBox="0 0 181.595 33.14">
  <defs>
    <clipPath id="clip-path">
      <path id="Path_1256" data-name="Path 1256" d="M34.11,23.545h0c0,.407.412.761.735.943L33.881,30.2h.03l-.03.029,1.3,1.3,1.3-1.3-.029-.029h.029l-.963-5.714c.323-.181.748-.536.748-.946h0a1.073,1.073,0,0,0-2.146,0" transform="translate(-33.881 -22.472)" fill="#fff"/>
    </clipPath>
  </defs>
  <g id="Group_2282" data-name="Group 2282" transform="translate(-236 -40.319)">
    <g id="Group_2280" data-name="Group 2280">
      <g id="Group_2247" data-name="Group 2247">
        <path id="Path_1257" data-name="Path 1257" d="M102.338,26.994h3.449c.9,0,1.207.552,1.259,1.466a7.392,7.392,0,0,0,.259,2.328h5.311a2.672,2.672,0,0,1-.6-1.448l-.207-2.69a1.946,1.946,0,0,0-1.4-1.9v-.034a2.679,2.679,0,0,0,1.9-2.811,3.372,3.372,0,0,0-1.673-2.983,6.573,6.573,0,0,0-2.915-.448H97.475V30.788h4.863Zm0-5.415h3.38c.811,0,1.414.207,1.414,1.155,0,.776-.379,1.155-1.345,1.155h-3.449Z" transform="translate(175.213 32.301)" fill="#fff"/>
        <path id="Path_1258" data-name="Path 1258" d="M145.5,27.787h-8.226V26.131h7.639v-3h-7.639V21.475H145.5v-3H132.411V30.787H145.5Z" transform="translate(156.868 32.301)" fill="#fff"/>
        <path id="Path_1259" data-name="Path 1259" d="M167.767,21.993h.034l2.587,8.8h3.69l2.587-8.8h.035v8.8h4.415V18.475h-6.846l-2.018,7.156h-.035L170.2,18.475h-6.846V30.788h4.415Z" transform="translate(140.621 32.301)" fill="#fff"/>
        <g id="Group_2226" data-name="Group 2226" transform="translate(44.396 -15.717)">
          <path id="Path_1260" data-name="Path 1260" d="M103.443,52.528c2.587,0,3.932,1.431,4.208,3.156h1.828c-.327-3.673-3.4-4.743-5.88-4.743-4.208,0-6.744,2.846-6.744,6.433,0,4.777,3.363,6.5,6.467,6.5,3.5,0,5.88-2.294,6.156-5.018h-1.828a4.033,4.033,0,0,1-4.311,3.432c-3.4,0-4.656-2.4-4.656-4.725,0-3.38,1.863-5.035,4.76-5.035" transform="translate(185.143 15.254)" fill="#fff"/>
          <path id="Path_1261" data-name="Path 1261" d="M131.7,57.84c-3.518,0-5.243,2.224-5.243,4.828S128.178,67.5,131.7,67.5s5.243-2.224,5.243-4.829-1.725-4.828-5.243-4.828m0,8.209a3.38,3.38,0,1,1,3.415-3.38,3.164,3.164,0,0,1-3.415,3.38" transform="translate(169.601 11.631)" fill="#fff"/>
          <path id="Path_1262" data-name="Path 1262" d="M153.888,59.807h-.034V58.151h-1.725v9.037h1.725V62.6a2.7,2.7,0,0,1,2.9-2.966,4.126,4.126,0,0,1,1.225.172V57.944a3.387,3.387,0,0,0-.983-.1,3.464,3.464,0,0,0-3.1,1.966" transform="translate(156.119 11.631)" fill="#fff"/>
          <path id="Path_1263" data-name="Path 1263" d="M172.1,58.058a4.316,4.316,0,0,0-3.432,1.466h-.034V58.265h-1.724v12.52h1.724V66.146h.034a4.26,4.26,0,0,0,3.432,1.466,4.779,4.779,0,1,0,0-9.554m-.224,8.105a3.328,3.328,0,1,1,3.311-3.328,3.076,3.076,0,0,1-3.311,3.328" transform="translate(148.356 11.516)" fill="#fff"/>
          <path id="Path_1264" data-name="Path 1264" d="M196.195,57.841c-3.518,0-5.243,2.224-5.243,4.828s1.724,4.829,5.243,4.829,5.243-2.224,5.243-4.829-1.725-4.828-5.243-4.828m0,8.209a3.38,3.38,0,1,1,3.415-3.38,3.164,3.164,0,0,1-3.415,3.38" transform="translate(135.733 11.631)" fill="#fff"/>
          <path id="Path_1265" data-name="Path 1265" d="M218.387,59.807h-.034V58.151h-1.725v9.037h1.725V62.6a2.7,2.7,0,0,1,2.9-2.966,4.126,4.126,0,0,1,1.225.172V57.944a3.389,3.389,0,0,0-.984-.1,3.465,3.465,0,0,0-3.1,1.966" transform="translate(122.251 11.631)" fill="#fff"/>
          <path id="Path_1266" data-name="Path 1266" d="M239.575,65.273V60.41c0-2.121-2.311-2.57-4.156-2.57-2.708,0-4.26.88-4.484,3.139h1.621c.052-1.38,1.328-1.794,2.794-1.794,1.4,0,2.6.242,2.6,1.484,0,.81-.6,1-1.57,1.086l-1.966.207c-2.9.328-3.88,1.138-3.88,2.811,0,1.173.69,2.725,3.673,2.725a5.144,5.144,0,0,0,3.845-1.466c.121,1.017.673,1.259,1.552,1.259a8.909,8.909,0,0,0,1.345-.1V65.979a2.378,2.378,0,0,1-.6.069.686.686,0,0,1-.776-.776m-1.621-1.656c0,1.517-1.638,2.535-3.587,2.535-1.259,0-2.1-.586-2.1-1.431,0-.965.69-1.294,2.053-1.483L236.264,63c.966-.121,1.431-.242,1.69-.535Z" transform="translate(114.946 11.631)" fill="#fff"/>
          <path id="Path_1267" data-name="Path 1267" d="M256.206,52.648h-1.724v2.776h-1.863v1.345h1.863v5.863c0,1.311.672,2.139,2.38,2.139a9.854,9.854,0,0,0,1.931-.121V63.2a6.98,6.98,0,0,1-1.19.121c-.88,0-1.4-.241-1.4-.983v-5.57h2.587V55.424h-2.587Z" transform="translate(103.353 14.357)" fill="#fff"/>
          <path id="Path_1268" data-name="Path 1268" d="M277.684,62.963c0-3.743-2.517-5.122-4.9-5.122-3.518,0-5.243,2.224-5.243,4.828s1.725,4.829,5.243,4.829a4.906,4.906,0,0,0,4.657-3.053h-1.828a3.039,3.039,0,0,1-2.914,1.6,3.186,3.186,0,0,1-3.328-2.862h8.312Zm-8.26-1.121a3.164,3.164,0,0,1,3.276-2.552,2.988,2.988,0,0,1,3.156,2.552Z" transform="translate(95.516 11.631)" fill="#fff"/>
        </g>
        <rect id="Rectangle_2761" data-name="Rectangle 2761" width="15.461" height="12.369" transform="translate(242.327 47.275)" fill="#1e1e1e"/>
        <path id="Path_1255" data-name="Path 1255" d="M7.934,16.478V10.942a1.62,1.62,0,0,1,1.62-1.62h2.531a1.657,1.657,0,1,1,3.314,0h2.531a1.62,1.62,0,0,1,1.62,1.62v5.536a1.62,1.62,0,0,1-1.62,1.62H9.554a1.62,1.62,0,0,1-1.62-1.62M13.741,0h-.049a13.7,13.7,0,0,0-9.67,4.013l0,0A13.682,13.682,0,0,0,0,13.691v.056a13.681,13.681,0,0,0,4.022,9.679l9.7,9.712.017-.018.018.018,9.7-9.712a13.725,13.725,0,0,0,0-19.41l0,0A13.7,13.7,0,0,0,13.79,0Z" transform="translate(236 40.32)" fill="#fff"/>
        <g id="Group_2223" data-name="Group 2223" transform="translate(248.439 48.568)">
          <g id="Group_2222" data-name="Group 2222" clip-path="url(#clip-path)">
            <rect id="Rectangle_2757" data-name="Rectangle 2757" width="8.236" height="8.236" transform="translate(-4.528 4.528) rotate(-45)" fill="#fff"/>
          </g>
        </g>
      </g>
    </g>
  </g>
</svg>
