<svg xmlns="http://www.w3.org/2000/svg" width="35.615" height="35.398" viewBox="0 0 35.615 35.398">
  <path id="Path_7" data-name="Path 7" d="M-840.245,179.886a17.807,17.807,0,0,0-17.807,17.807,17.811,17.811,0,0,0,15.025,17.591V202.84h-4.521v-5.147h4.521V193.77c0-4.463,2.658-6.928,6.726-6.928a27.389,27.389,0,0,1,3.986.348v4.382h-2.245a2.574,2.574,0,0,0-2.9,2.781v3.34h4.939l-.789,5.147h-4.149v12.443a17.811,17.811,0,0,0,15.025-17.591A17.807,17.807,0,0,0-840.245,179.886Z" transform="translate(858.052 -179.886)" fill="#fff"/>
</svg>
