<svg id="Group_7" data-name="Group 7" xmlns="http://www.w3.org/2000/svg" width="35.615" height="35.615" viewBox="0 0 35.615 35.615">
  <path id="Path_4" data-name="Path 4" d="M-569.168,215.122a3.475,3.475,0,0,0-.839-1.289,3.472,3.472,0,0,0-1.289-.839,6.2,6.2,0,0,0-2.082-.386c-1.182-.054-1.537-.065-4.531-.065s-3.348.012-4.531.065a6.2,6.2,0,0,0-2.082.386,3.471,3.471,0,0,0-1.289.839,3.474,3.474,0,0,0-.839,1.289,6.207,6.207,0,0,0-.386,2.082c-.054,1.182-.065,1.537-.065,4.531s.011,3.348.065,4.53a6.207,6.207,0,0,0,.386,2.082,3.473,3.473,0,0,0,.839,1.289,3.474,3.474,0,0,0,1.289.839,6.2,6.2,0,0,0,2.082.386c1.182.054,1.537.065,4.531.065s3.349-.011,4.531-.065a6.2,6.2,0,0,0,2.082-.386,3.474,3.474,0,0,0,1.289-.839,3.476,3.476,0,0,0,.839-1.289,6.209,6.209,0,0,0,.386-2.082c.054-1.182.065-1.537.065-4.53s-.011-3.348-.065-4.531A6.209,6.209,0,0,0-569.168,215.122Zm-8.74,12.37a5.757,5.757,0,0,1-5.757-5.757,5.757,5.757,0,0,1,5.757-5.758,5.757,5.757,0,0,1,5.757,5.758A5.757,5.757,0,0,1-577.908,227.492Zm5.985-10.4a1.345,1.345,0,0,1-1.345-1.345,1.345,1.345,0,0,1,1.345-1.345,1.345,1.345,0,0,1,1.345,1.345A1.345,1.345,0,0,1-571.923,217.1Z" transform="translate(595.716 -203.928)" fill="#fff"/>
  <circle id="Ellipse_1" data-name="Ellipse 1" cx="3.737" cy="3.737" r="3.737" transform="translate(13.52 14.717) rotate(-9.217)" fill="#fff"/>
  <path id="Path_5" data-name="Path 5" d="M-601.951,179.886a17.807,17.807,0,0,0-17.807,17.807A17.807,17.807,0,0,0-601.951,215.5a17.807,17.807,0,0,0,17.807-17.807A17.807,17.807,0,0,0-601.951,179.886Zm11.144,22.43a8.231,8.231,0,0,1-.521,2.722,5.5,5.5,0,0,1-1.293,1.986,5.5,5.5,0,0,1-1.986,1.293,8.223,8.223,0,0,1-2.721.521c-1.2.055-1.578.068-4.623.068s-3.427-.013-4.623-.068a8.223,8.223,0,0,1-2.721-.521,5.5,5.5,0,0,1-1.986-1.293,5.494,5.494,0,0,1-1.293-1.986,8.231,8.231,0,0,1-.521-2.722c-.055-1.2-.068-1.578-.068-4.622s.013-3.427.068-4.623a8.231,8.231,0,0,1,.521-2.722,5.5,5.5,0,0,1,1.293-1.986,5.5,5.5,0,0,1,1.986-1.293,8.229,8.229,0,0,1,2.721-.521c1.2-.054,1.578-.067,4.623-.067s3.427.013,4.623.067a8.23,8.23,0,0,1,2.721.521,5.5,5.5,0,0,1,1.986,1.293,5.5,5.5,0,0,1,1.293,1.986,8.231,8.231,0,0,1,.521,2.722c.055,1.2.068,1.578.068,4.623S-590.752,201.12-590.806,202.316Z" transform="translate(619.758 -179.886)" fill="#fff"/>
</svg>
