<svg xmlns="http://www.w3.org/2000/svg" width="35.615" height="35.615" viewBox="0 0 35.615 35.615">
  <path id="Path_6" data-name="Path 6" d="M-363.657,179.886a17.807,17.807,0,0,0-17.807,17.807A17.807,17.807,0,0,0-363.657,215.5a17.807,17.807,0,0,0,17.807-17.807A17.807,17.807,0,0,0-363.657,179.886Zm-5.877,27.537c-1.267-.014-2.534-.011-3.8,0-.2,0-.264-.049-.264-.259q.009-6.771,0-13.543c0-.187.045-.254.244-.252,1.285.008,2.571.011,3.856,0,.247,0,.28.093.28.3q-.01,3.372,0,6.744c0,2.229,0,4.459.005,6.689C-369.216,207.351-369.277,207.426-369.534,207.423Zm-1.87-15.989a2.547,2.547,0,0,1-2.529-2.519,2.542,2.542,0,0,1,2.534-2.539,2.538,2.538,0,0,1,2.526,2.517A2.539,2.539,0,0,1-371.4,191.434Zm18.573,15.7c0,.23-.064.291-.291.289q-1.9-.016-3.8,0c-.223,0-.271-.067-.27-.278q.011-3.511,0-7.022a6.309,6.309,0,0,0-.2-1.743,1.96,1.96,0,0,0-2.156-1.527,2.356,2.356,0,0,0-2.476,2.352,8.732,8.732,0,0,0-.067,1.1c0,2.276,0,4.553.006,6.829,0,.227-.056.294-.288.292q-1.915-.017-3.829,0c-.2,0-.264-.054-.264-.261q.009-6.76,0-13.521c0-.223.073-.275.284-.273q1.818.013,3.636,0c.223,0,.281.07.276.281-.012.538,0,1.077,0,1.616.293-.329.534-.662.834-.946a4.576,4.576,0,0,1,3.291-1.3,7.617,7.617,0,0,1,2.069.252,4.045,4.045,0,0,1,2.872,3.021,12.64,12.64,0,0,1,.383,3.461C-352.825,202.213-352.837,204.673-352.832,207.133Z" transform="translate(381.464 -179.886)" fill="#fff"/>
</svg>
