<svg xmlns="http://www.w3.org/2000/svg" width="19.5" height="18.138" viewBox="0 0 19.5 18.138">
  <path id="mail-open-svgrepo-com" d="M12,2.612a2.754,2.754,0,0,1,.612.069,4.929,4.929,0,0,1,1.489.753l5.8,3.643a4.857,4.857,0,0,1,1.19.9,2.735,2.735,0,0,1,.534.966,4.86,4.86,0,0,1,.125,1.484V16.8a5.365,5.365,0,0,1-.3,2.449,2.732,2.732,0,0,1-1.2,1.2,5.365,5.365,0,0,1-2.448.3H6.2a5.365,5.365,0,0,1-2.448-.3,2.733,2.733,0,0,1-1.2-1.2,5.366,5.366,0,0,1-.3-2.449V10.421a4.86,4.86,0,0,1,.125-1.484,2.735,2.735,0,0,1,.534-.966,4.859,4.859,0,0,1,1.19-.9L9.9,3.434a4.93,4.93,0,0,1,1.489-.753A2.755,2.755,0,0,1,12,2.612Zm8.222,6.9a.87.87,0,0,0-.028-.129,1.243,1.243,0,0,0-.243-.439,4.345,4.345,0,0,0-.847-.6L13.3,4.7a4.454,4.454,0,0,0-1.025-.561,1.256,1.256,0,0,0-.556,0A4.454,4.454,0,0,0,10.7,4.7L4.9,8.346a4.35,4.35,0,0,0-.847.6,1.243,1.243,0,0,0-.243.439,4.351,4.351,0,0,0-.057,1.036V16.8a5.1,5.1,0,0,0,.136,1.767,1.242,1.242,0,0,0,.546.546A5.1,5.1,0,0,0,6.2,19.25H17.8a5.1,5.1,0,0,0,1.767-.136,1.242,1.242,0,0,0,.546-.546A5.1,5.1,0,0,0,20.25,16.8V11.385L14.192,15.44a4.97,4.97,0,0,1-1.551.831,2.763,2.763,0,0,1-1.282,0,4.966,4.966,0,0,1-1.55-.83.75.75,0,0,1,.109-1.308ZM12,14.846a1.252,1.252,0,0,0,.291-.034,3.477,3.477,0,0,0,.878-.493l-1.177.528Z" transform="translate(-2.25 -2.612)" fill="#fff"/>
</svg>
