<svg id="phone-calling-svgrepo-com" xmlns="http://www.w3.org/2000/svg" width="21.751" height="21.75" viewBox="0 0 21.751 21.75">
  <path id="Path_1235" data-name="Path 1235" fill="#fff"/>
  <path id="Path_1236" data-name="Path 1236" fill="#fff"/>
  <path id="Path_1237" data-name="Path 1237" d="M15.1,15.027l-.544-.516Zm.455-.479.544.517h0Zm2.417-.335-.374.65h0Zm1.911,1.1-.374.65Zm.538,3.446.544.517ZM19,20.254l-.544-.517Zm-1.325.709.074.746ZM7.815,16.475l.544-.517ZM3,6.966l-.749.04h0ZM9.478,8.5l.544.517h0Zm.157-2.81.612-.433ZM8.373,3.91l-.612.433h0Zm-3.112-.3.544.517ZM3.692,5.261l-.544-.517h0Zm7.371,7.795.544-.516Zm4.581,2.488.456-.479-1.088-1.033-.455.479Zm1.954-.681,1.91,1.1.748-1.3-1.91-1.1Zm2.279,3.38-1.421,1.5,1.088,1.033,1.421-1.5ZM17.6,20.217c-1.435.142-5.179.021-9.243-4.258L7.272,16.992c4.429,4.663,8.655,4.9,10.478,4.718ZM8.359,15.959C4.483,11.878,3.833,8.436,3.752,6.926l-1.5.08c.1,1.849.884,5.634,5.018,9.986ZM9.734,9.322l.287-.3L8.934,7.987l-.287.3Zm.512-4.061L8.986,3.477l-1.225.866L9.022,6.126ZM4.718,3.092,3.148,4.745,4.236,5.778l1.57-1.652ZM9.191,8.805c-.544-.517-.544-.516-.545-.515v0l0,0L8.635,8.3l-.013.015-.031.037c-.022.028-.047.062-.073.1a1.592,1.592,0,0,0-.157.324,2.258,2.258,0,0,0-.084,1.092,7.344,7.344,0,0,0,2.243,3.7l1.088-1.033A6.02,6.02,0,0,1,9.761,9.655a.785.785,0,0,1,.013-.372c.007-.02.012-.026.007-.019l-.014.02L9.754,9.3l-.009.01,0,.005,0,0h0S9.734,9.322,9.191,8.805Zm1.329,4.767c1.523,1.6,2.673,2.234,3.55,2.376a2.05,2.05,0,0,0,1.091-.094,1.519,1.519,0,0,0,.322-.172,1.247,1.247,0,0,0,.1-.079l.036-.033.014-.014.006-.007,0,0h0s0,0-.542-.518-.543-.517-.542-.518v0l0,0,.005-.005.01-.009.016-.015.021-.017c.009-.007.008,0,0,0a.579.579,0,0,1-.3.009c-.4-.065-1.271-.421-2.7-1.929ZM8.986,3.477a2.752,2.752,0,0,0-4.268-.385L5.805,4.125a1.254,1.254,0,0,1,1.956.217ZM3.752,6.926a1.562,1.562,0,0,1,.484-1.148L3.148,4.745a3.055,3.055,0,0,0-.894,2.262ZM18.457,19.737a1.4,1.4,0,0,1-.855.479l.147,1.493a2.886,2.886,0,0,0,1.8-.939ZM10.021,9.02a2.986,2.986,0,0,0,.225-3.76l-1.225.866a1.487,1.487,0,0,1-.088,1.861Zm9.488,6.942a1.5,1.5,0,0,1,.369,2.28l1.088,1.033a3,3,0,0,0-.708-4.613Zm-3.409-.9a1.2,1.2,0,0,1,1.5-.2l.748-1.3a2.7,2.7,0,0,0-3.335.469Z" fill="#fff"/>
</svg>
