<svg xmlns="http://www.w3.org/2000/svg" xmlns:xlink="http://www.w3.org/1999/xlink" width="200.08" height="33.14" viewBox="0 0 200.08 33.14">
  <defs>
    <clipPath id="clip-path">
      <path id="Path_1256" data-name="Path 1256" d="M34.11,23.545h0c0,.407.412.761.735.943L33.881,30.2h.03l-.03.029,1.3,1.3,1.3-1.3-.029-.029h.029l-.963-5.714c.323-.181.748-.536.748-.946h0a1.073,1.073,0,0,0-2.146,0" transform="translate(-33.881 -22.472)" fill="#fff"/>
    </clipPath>
  </defs>
  <g id="Group_2281" data-name="Group 2281" transform="translate(-236 -111.319)">
    <rect id="Rectangle_2761" data-name="Rectangle 2761" width="15.461" height="12.369" transform="translate(242.327 118.275)" fill="#1e1e1e"/>
    <path id="Path_1255" data-name="Path 1255" d="M7.934,16.478V10.942a1.62,1.62,0,0,1,1.62-1.62h2.531a1.657,1.657,0,1,1,3.314,0h2.531a1.62,1.62,0,0,1,1.62,1.62v5.536a1.62,1.62,0,0,1-1.62,1.62H9.554a1.62,1.62,0,0,1-1.62-1.62M13.741,0h-.049a13.7,13.7,0,0,0-9.67,4.013l0,0A13.682,13.682,0,0,0,0,13.691v.056a13.681,13.681,0,0,0,4.022,9.679l9.7,9.712.017-.018.018.018,9.7-9.712a13.725,13.725,0,0,0,0-19.41l0,0A13.7,13.7,0,0,0,13.79,0Z" transform="translate(236 111.32)" fill="#fff"/>
    <g id="Group_2223" data-name="Group 2223" transform="translate(248.439 119.568)">
      <g id="Group_2222" data-name="Group 2222" clip-path="url(#clip-path)">
        <rect id="Rectangle_2757" data-name="Rectangle 2757" width="8.236" height="8.236" transform="translate(-4.528 4.528) rotate(-45)" fill="#fff"/>
      </g>
    </g>
    <path id="Path_1292" data-name="Path 1292" d="M-79.2-6.048v-3.9h4.384a1.727,1.727,0,0,1,1.936,1.84c0,1.152-.56,2.064-2.24,2.064ZM-80.9,0h1.7V-4.576h4.3a3.353,3.353,0,0,0,3.712-3.568c0-2.128-1.312-3.28-3.824-3.28H-80.9ZM-62-4.192a2.935,2.935,0,0,1-3.168,3.136,2.935,2.935,0,0,1-3.168-3.136,2.935,2.935,0,0,1,3.168-3.136A2.935,2.935,0,0,1-62-4.192Zm-8.032,0c0,2.416,1.6,4.48,4.864,4.48S-60.3-1.776-60.3-4.192s-1.6-4.48-4.864-4.48S-70.032-6.608-70.032-4.192ZM-59.2-2.64C-59.024-.208-56.832.288-54.912.288c2.56,0,4.208-.912,4.208-2.864,0-1.168-.816-1.92-2.928-2.224L-55.9-5.1c-1.136-.144-1.392-.48-1.392-1.04,0-.976,1.184-1.28,2.208-1.28,1.664,0,2.464.72,2.512,1.568h1.6c-.128-1.632-1.36-2.816-4.1-2.816-2.368,0-3.824.992-3.824,2.7a2.338,2.338,0,0,0,2.272,2.224l2.64.352c1.28.176,1.584.528,1.584,1.12S-52.912-.96-54.96-.96c-2.032,0-2.64-.928-2.64-1.68ZM-49.232,0h1.6V-11.52h-1.6Zm11.216-4.192a2.935,2.935,0,0,1-3.168,3.136,2.935,2.935,0,0,1-3.168-3.136,2.935,2.935,0,0,1,3.168-3.136A2.935,2.935,0,0,1-38.016-4.192Zm-8.032,0c0,2.416,1.6,4.48,4.864,4.48s4.864-2.064,4.864-4.48-1.6-4.48-4.864-4.48S-46.048-6.608-46.048-4.192ZM-31.072-1.76l-2.88-6.624h-1.84L-31.984,0h1.76l3.776-8.384H-28.24ZM-25.552,0h1.6V-4.832a2.5,2.5,0,0,1,2.752-2.5c1.728,0,2.48.7,2.48,1.936V0h1.6V-5.712c0-2.1-1.5-2.96-3.52-2.96A3.769,3.769,0,0,0-23.92-7.12h-.032V-8.384h-1.6Zm16.88-3.312C-8.672-1.9-10.192-.96-12-.96c-1.168,0-1.952-.544-1.952-1.328,0-.9.64-1.2,1.9-1.376l1.808-.224c.9-.112,1.328-.224,1.568-.5ZM-13.68-5.76c.048-1.28,1.232-1.664,2.592-1.664,1.3,0,2.416.224,2.416,1.376,0,.752-.56.928-1.456,1.008l-1.824.192c-2.688.3-3.6,1.056-3.6,2.608,0,1.088.64,2.528,3.408,2.528a4.772,4.772,0,0,0,3.568-1.36C-8.464-.128-7.952.1-7.136.1A8.2,8.2,0,0,0-5.888,0V-1.12a2.229,2.229,0,0,1-.56.064.636.636,0,0,1-.72-.72V-6.288c0-1.968-2.144-2.384-3.856-2.384-2.512,0-3.952.816-4.16,2.912Zm21.9,1.616A2.854,2.854,0,0,1,5.152-1.056a2.894,2.894,0,0,1-3.1-3.088,2.887,2.887,0,0,1,3.1-3.088A2.87,2.87,0,0,1,8.224-4.144ZM.544,3.232h1.6v-4.3h.032A3.952,3.952,0,0,0,5.36.288,4.281,4.281,0,0,0,9.92-4.144,4.281,4.281,0,0,0,5.36-8.576a4,4,0,0,0-3.184,1.36H2.144V-8.384H.544ZM19.168-4.192A2.935,2.935,0,0,1,16-1.056a2.935,2.935,0,0,1-3.168-3.136A2.935,2.935,0,0,1,16-7.328,2.935,2.935,0,0,1,19.168-4.192Zm-8.032,0c0,2.416,1.6,4.48,4.864,4.48s4.864-2.064,4.864-4.48-1.6-4.48-4.864-4.48S11.136-6.608,11.136-4.192ZM23.152-8.384H21.424v1.248h1.728V-1.7c0,1.216.624,1.984,2.208,1.984A9.134,9.134,0,0,0,27.152.176V-1.168a6.458,6.458,0,0,1-1.1.112c-.816,0-1.3-.224-1.3-.912V-7.136h2.4V-8.384h-2.4V-10.96h-1.6Zm12.88,4.192a2.935,2.935,0,0,1-3.168,3.136A2.935,2.935,0,0,1,29.7-4.192a2.935,2.935,0,0,1,3.168-3.136A2.935,2.935,0,0,1,36.032-4.192ZM28-4.192c0,2.416,1.6,4.48,4.864,4.48s4.864-2.064,4.864-4.48-1.6-4.48-4.864-4.48S28-6.608,28-4.192ZM42.976-1.76,40.1-8.384h-1.84L42.064,0h1.76L47.6-8.384H45.808ZM54.992-3.312c0,1.408-1.52,2.352-3.328,2.352-1.168,0-1.952-.544-1.952-1.328,0-.9.64-1.2,1.9-1.376l1.808-.224c.9-.112,1.328-.224,1.568-.5ZM49.984-5.76c.048-1.28,1.232-1.664,2.592-1.664,1.3,0,2.416.224,2.416,1.376,0,.752-.56.928-1.456,1.008l-1.824.192c-2.688.3-3.6,1.056-3.6,2.608,0,1.088.64,2.528,3.408,2.528a4.772,4.772,0,0,0,3.568-1.36C55.2-.128,55.712.1,56.528.1A8.2,8.2,0,0,0,57.776,0V-1.12a2.229,2.229,0,0,1-.56.064.636.636,0,0,1-.72-.72V-6.288c0-1.968-2.144-2.384-3.856-2.384-2.512,0-3.952.816-4.16,2.912ZM58.864,0h1.6V-4.832a2.5,2.5,0,0,1,2.752-2.5c1.728,0,2.48.7,2.48,1.936V0h1.6V-5.712c0-2.1-1.5-2.96-3.52-2.96A3.769,3.769,0,0,0,60.5-7.12h-.032V-8.384h-1.6ZM69.248-9.76h1.6v-1.76h-1.6ZM67.44,3.2c.272.016.512.032.752.032,2.032,0,2.656-.784,2.656-2.72v-8.9h-1.6V.88c0,.7-.336,1.008-1.216,1.008h-.288a2.186,2.186,0,0,1-.3-.032ZM79.3-3.312C79.3-1.9,77.776-.96,75.968-.96c-1.168,0-1.952-.544-1.952-1.328,0-.9.64-1.2,1.9-1.376l1.808-.224c.9-.112,1.328-.224,1.568-.5ZM74.288-5.76c.048-1.28,1.232-1.664,2.592-1.664,1.3,0,2.416.224,2.416,1.376,0,.752-.56.928-1.456,1.008l-1.824.192c-2.688.3-3.6,1.056-3.6,2.608,0,1.088.64,2.528,3.408,2.528a4.772,4.772,0,0,0,3.568-1.36C79.5-.128,80.016.1,80.832.1A8.2,8.2,0,0,0,82.08,0V-1.12a2.229,2.229,0,0,1-.56.064.636.636,0,0,1-.72-.72V-6.288c0-1.968-2.144-2.384-3.856-2.384-2.512,0-3.952.816-4.16,2.912Z" transform="translate(354 133)" fill="#faf9f6"/>
  </g>
</svg>
