<svg xmlns="http://www.w3.org/2000/svg" width="21.5" height="21.5" viewBox="0 0 21.5 21.5">
  <g id="chat-round-call-svgrepo-com" transform="translate(-1.25 -1.25)">
    <path id="Path_1238" data-name="Path 1238" d="M12,22.75a10.642,10.642,0,0,1-4.787-1.122.894.894,0,0,0-.62-.08l-2.226.6a2.041,2.041,0,0,1-2.158-.735,2.032,2.032,0,0,1-.352-1.776l.6-2.226a.886.886,0,0,0-.08-.62A10.752,10.752,0,0,1,12,1.25,10.75,10.75,0,0,1,19.6,19.6,10.68,10.68,0,0,1,12,22.75ZM6.788,20.022a2.471,2.471,0,0,1,1.094.263A9.155,9.155,0,0,0,12,21.25,9.25,9.25,0,1,0,2.75,12a9.156,9.156,0,0,0,.965,4.118A2.382,2.382,0,0,1,3.9,17.794l-.6,2.226A.536.536,0,0,0,3.4,20.5a.552.552,0,0,0,.433.219.574.574,0,0,0,.148-.02l2.226-.6A2.253,2.253,0,0,1,6.788,20.022Z" fill="#fff"/>
    <path id="Path_1239" data-name="Path 1239" d="M12,16.75a.75.75,0,0,1-.75-.75V8a.75.75,0,0,1,1.5,0v8A.75.75,0,0,1,12,16.75Z" fill="#fff"/>
    <path id="Path_1240" data-name="Path 1240" d="M8,14.75A.75.75,0,0,1,7.25,14V10a.75.75,0,0,1,1.5,0v4A.75.75,0,0,1,8,14.75Z" fill="#fff"/>
    <path id="Path_1241" data-name="Path 1241" d="M16,14.75a.75.75,0,0,1-.75-.75V10a.75.75,0,0,1,1.5,0v4A.75.75,0,0,1,16,14.75Z" fill="#fff"/>
  </g>
</svg>
